<?xml version="1.0" standalone="no"?>
<!DOCTYPE svg PUBLIC "-//W3C//DTD SVG 20010904//EN"
 "http://www.w3.org/TR/2001/REC-SVG-20010904/DTD/svg10.dtd">
<svg version="1.0" xmlns="http://www.w3.org/2000/svg"
 width="1118.000000pt" height="1280.000000pt" viewBox="0 0 1118.000000 1280.000000"
 preserveAspectRatio="xMidYMid meet">
<g transform="translate(0.000000,1280.000000) scale(0.100000,-0.100000)"
fill="#ffc107" stroke="none">
<path d="M5515 12472 c-11 -2 -25 -10 -31 -18 -8 -10 -23 -11 -61 -5 -55 8
-87 1 -96 -23 -4 -11 -19 -16 -42 -16 -41 0 -69 -12 -105 -45 -14 -13 -43 -33
-66 -44 -51 -27 -84 -61 -88 -93 -3 -33 -14 -48 -35 -48 -27 0 -71 -69 -71
-111 0 -25 -8 -42 -29 -61 -29 -28 -45 -76 -35 -103 4 -8 1 -22 -6 -30 -23
-27 -50 -89 -50 -115 -1 -20 -13 -33 -61 -63 -33 -21 -64 -49 -69 -62 -5 -14
-16 -25 -24 -25 -26 0 -76 -59 -76 -91 0 -16 -4 -29 -9 -29 -14 0 -56 -41 -70
-69 -7 -13 -10 -37 -7 -53 5 -24 0 -35 -24 -60 -30 -30 -38 -56 -21 -73 5 -6
2 -48 -6 -100 -8 -49 -15 -106 -15 -125 1 -76 17 -269 27 -336 l7 -41 -39 -6
c-21 -4 -50 -7 -65 -7 -45 0 -58 -31 -58 -140 0 -121 55 -349 129 -537 66
-168 81 -230 81 -328 -1 -104 -20 -208 -59 -322 -37 -106 -37 -142 -1 -160 34
-16 96 -2 126 29 13 13 48 79 78 148 51 119 66 172 81 283 11 82 42 74 100
-28 22 -38 22 -43 10 -115 -12 -73 -68 -223 -106 -286 -23 -38 -53 -52 -99
-47 -21 3 -86 -10 -165 -32 -171 -48 -195 -57 -195 -72 0 -9 -16 -13 -51 -13
-35 0 -70 -9 -113 -29 -33 -16 -79 -31 -100 -34 -21 -4 -55 -17 -75 -30 -20
-13 -53 -26 -73 -30 -51 -8 -238 -103 -295 -149 -25 -21 -51 -38 -59 -38 -7 0
-51 -38 -98 -85 -60 -60 -89 -98 -99 -129 -8 -24 -31 -69 -51 -99 -20 -32 -44
-89 -55 -134 -28 -107 -85 -482 -115 -748 -14 -121 -27 -236 -29 -255 -3 -19
-21 -125 -41 -235 -19 -110 -42 -249 -50 -310 -9 -60 -22 -150 -31 -200 -42
-247 -87 -579 -114 -835 -17 -157 -35 -310 -41 -340 -20 -101 -15 -227 13
-300 14 -36 30 -81 37 -100 23 -67 64 -140 82 -146 10 -3 18 -15 18 -26 0 -12
9 -30 19 -42 11 -12 59 -63 108 -114 78 -83 87 -97 88 -132 1 -21 9 -47 18
-58 16 -18 16 -22 -3 -78 -28 -81 -72 -164 -88 -164 -7 0 -22 -15 -33 -34 -13
-23 -33 -39 -62 -49 -23 -8 -105 -44 -182 -80 -150 -69 -454 -172 -483 -162
-33 10 -116 -12 -137 -37 -21 -25 -27 -26 -575 -154 -126 -30 -174 -46 -257
-89 -225 -117 -344 -252 -400 -455 -24 -85 -24 -391 -1 -523 11 -64 12 -90 4
-92 -6 -2 -65 -8 -132 -15 -217 -20 -437 -57 -450 -75 -16 -22 -28 -225 -19
-321 13 -139 72 -272 190 -429 31 -41 81 -96 111 -123 l55 -48 -79 -46 c-43
-26 -91 -60 -106 -75 -40 -40 -133 -182 -153 -234 -25 -66 -22 -215 7 -312 33
-111 51 -125 192 -148 332 -55 401 -58 1451 -70 436 -5 934 -13 1107 -18 173
-6 799 -15 1390 -21 591 -5 1246 -15 1455 -20 1197 -33 1945 -38 2400 -18 143
7 312 12 375 11 63 -1 198 -2 300 -2 102 -1 433 -6 736 -13 302 -6 566 -8 586
-4 20 4 52 18 73 31 24 17 41 23 52 17 21 -12 58 -3 84 21 18 16 33 20 80 18
53 -2 61 0 84 26 14 15 48 52 75 81 60 63 80 108 86 182 2 30 7 82 10 115 8
75 -11 189 -39 235 -12 19 -62 80 -111 134 -77 85 -100 103 -158 129 -37 16
-68 33 -68 38 0 4 40 45 89 91 131 123 184 223 216 408 21 120 17 291 -8 318
-9 10 -17 31 -17 46 0 84 -81 108 -418 122 -153 6 -172 9 -167 23 19 46 35
166 44 331 16 275 15 313 -15 407 -22 68 -37 95 -99 171 -174 211 -352 268
-948 303 l-207 12 -6 26 c-11 51 -27 82 -48 93 -42 23 -136 15 -248 -21 -97
-31 -112 -33 -147 -22 -30 9 -45 21 -63 53 -44 79 -55 83 -261 84 -158 2 -191
5 -250 24 -55 18 -66 25 -57 36 16 18 3 53 -24 66 -16 6 -23 19 -23 36 0 15
-12 67 -26 116 -24 81 -25 91 -11 117 8 16 28 36 44 44 17 9 30 19 30 23 0 5
40 49 89 100 109 111 164 214 180 340 19 143 20 165 10 251 -14 134 -67 886
-84 1201 -8 157 -20 357 -25 445 -6 88 -15 284 -20 435 -13 383 -35 661 -65
815 -33 168 -115 360 -186 436 -19 20 -49 56 -68 80 -18 24 -65 69 -104 100
-64 52 -108 75 -339 178 -26 12 -71 26 -100 31 -29 6 -65 17 -79 25 -14 8 -46
17 -70 21 -24 3 -70 15 -101 25 -32 11 -76 19 -99 19 -25 0 -50 7 -60 16 -19
17 -149 53 -305 83 -130 26 -143 31 -186 79 -45 50 -76 132 -93 246 l-13 89
41 54 c39 53 41 54 50 31 4 -12 19 -76 32 -141 20 -102 30 -129 70 -192 25
-41 60 -86 77 -100 72 -61 158 -83 166 -42 2 9 -19 90 -47 180 -110 353 -108
493 8 799 66 174 130 450 117 504 -7 26 -56 54 -96 54 -17 0 -20 6 -20 39 0
21 7 56 16 77 9 20 14 55 12 76 -2 24 1 39 9 43 10 3 12 22 8 69 -3 49 -1 67
10 76 18 15 19 36 3 97 -10 37 -10 47 0 50 17 6 15 46 -4 91 -9 22 -13 50 -9
69 4 24 0 42 -19 72 -14 22 -23 47 -20 56 6 13 -55 129 -76 145 -4 3 -15 20
-25 38 -11 17 -28 35 -39 38 -11 4 -28 16 -37 28 -9 12 -38 32 -64 45 -31 15
-45 28 -41 37 3 8 -4 39 -15 69 -11 30 -18 59 -15 63 11 18 -16 83 -50 119
-23 24 -38 52 -43 80 -6 30 -19 51 -45 74 -20 18 -36 40 -36 49 0 28 -58 100
-80 100 -12 0 -24 10 -30 24 -10 26 -95 71 -158 82 -20 3 -46 14 -57 24 -19
17 -51 22 -187 34 -25 2 -50 6 -55 8 -4 3 -17 3 -28 0z"/>
</g>
</svg>
